<svg xmlns="http://www.w3.org/2000/svg" xmlns:xlink="http://www.w3.org/1999/xlink" style="margin:auto;background:#f1f2f3;display:block;z-index:1;position:relative" width="1366" height="300" preserveAspectRatio="xMidYMid" viewBox="0 0 1366 300">
<g transform="translate(683,150) scale(1,1) translate(-683,-150)"><defs>
<linearGradient id="lg-0.3727329387187901" x1="0" x2="0" y1="0" y2="1">
  <stop stop-color="#650095" offset="0.05"></stop>
  <stop stop-color="#116eef" offset="0.525"></stop>
  <stop stop-color="#116eef" offset="1"></stop>
</linearGradient>
<linearGradient id="fg-lg-0.3727329387187901" x1="0" x2="0" y1="0" y2="1">
  <stop stop-color="#650095" stop-opacity="1" offset="0.05"></stop>
  <stop stop-color="#116eef" stop-opacity="0.66" offset="0.525"></stop>
  <stop stop-color="#116eef" stop-opacity="0" offset="1"></stop>
</linearGradient>
<style type="text/css">
  path { fill: none; stroke: #000000; stroke-width: 1px }
</style>
</defs>
<rect x="0" y="0" width="1366" height="300" fill="url(#lg-0.3727329387187901)"></rect><path d="M0 15 L-19807 300"></path><path d="M8.48447204968944 15 L-19552.465838509317 300"></path><path d="M16.96894409937888 15 L-19297.931677018634 300"></path><path d="M25.453416149068325 15 L-19043.39751552795 300"></path><path d="M33.93788819875776 15 L-18788.86335403727 300"></path><path d="M42.422360248447205 15 L-18534.329192546586 300"></path><path d="M50.90683229813665 15 L-18279.7950310559 300"></path><path d="M59.391304347826086 15 L-18025.260869565216 300"></path><path d="M67.87577639751552 15 L-17770.726708074533 300"></path><path d="M76.36024844720497 15 L-17516.19254658385 300"></path><path d="M84.84472049689441 15 L-17261.658385093167 300"></path><path d="M93.32919254658385 15 L-17007.124223602485 300"></path><path d="M101.8136645962733 15 L-16752.5900621118 300"></path><path d="M110.29813664596273 15 L-16498.05590062112 300"></path><path d="M118.78260869565217 15 L-16243.521739130436 300"></path><path d="M127.26708074534162 15 L-15988.987577639751 300"></path><path d="M135.75155279503105 15 L-15734.453416149068 300"></path><path d="M144.2360248447205 15 L-15479.919254658385 300"></path><path d="M152.72049689440993 15 L-15225.3850931677 300"></path><path d="M161.2049689440994 15 L-14970.850931677018 300"></path><path d="M169.68944099378882 15 L-14716.316770186335 300"></path><path d="M178.17391304347825 15 L-14461.782608695652 300"></path><path d="M186.6583850931677 15 L-14207.24844720497 300"></path><path d="M195.14285714285714 15 L-13952.714285714286 300"></path><path d="M203.6273291925466 15 L-13698.180124223603 300"></path><path d="M212.11180124223603 15 L-13443.64596273292 300"></path><path d="M220.59627329192546 15 L-13189.111801242236 300"></path><path d="M229.08074534161491 15 L-12934.577639751553 300"></path><path d="M237.56521739130434 15 L-12680.04347826087 300"></path><path d="M246.0496894409938 15 L-12425.509316770185 300"></path><path d="M254.53416149068323 15 L-12170.975155279502 300"></path><path d="M263.01863354037266 15 L-11916.44099378882 300"></path><path d="M271.5031055900621 15 L-11661.906832298137 300"></path><path d="M279.9875776397516 15 L-11407.372670807454 300"></path><path d="M288.472049689441 15 L-11152.83850931677 300"></path><path d="M296.95652173913044 15 L-10898.304347826086 300"></path><path d="M305.44099378881987 15 L-10643.770186335403 300"></path><path d="M313.9254658385093 15 L-10389.23602484472 300"></path><path d="M322.4099378881988 15 L-10134.701863354037 300"></path><path d="M330.8944099378882 15 L-9880.167701863355 300"></path><path d="M339.37888198757764 15 L-9625.633540372672 300"></path><path d="M347.8633540372671 15 L-9371.099378881987 300"></path><path d="M356.3478260869565 15 L-9116.565217391304 300"></path><path d="M364.832298136646 15 L-8862.031055900621 300"></path><path d="M373.3167701863354 15 L-8607.496894409938 300"></path><path d="M381.80124223602485 15 L-8352.962732919255 300"></path><path d="M390.2857142857143 15 L-8098.428571428571 300"></path><path d="M398.7701863354037 15 L-7843.894409937888 300"></path><path d="M407.2546583850932 15 L-7589.360248447205 300"></path><path d="M415.7391304347826 15 L-7334.826086956522 300"></path><path d="M424.22360248447205 15 L-7080.291925465839 300"></path><path d="M432.7080745341615 15 L-6825.757763975154 300"></path><path d="M441.1925465838509 15 L-6571.2236024844715 300"></path><path d="M449.6770186335404 15 L-6316.689440993789 300"></path><path d="M458.16149068322983 15 L-6062.155279503106 300"></path><path d="M466.64596273291926 15 L-5807.621118012423 300"></path><path d="M475.1304347826087 15 L-5553.08695652174 300"></path><path d="M483.6149068322981 15 L-5298.552795031055 300"></path><path d="M492.0993788819876 15 L-5044.018633540372 300"></path><path d="M500.58385093167703 15 L-4789.484472049689 300"></path><path d="M509.06832298136646 15 L-4534.9503105590065 300"></path><path d="M517.5527950310559 15 L-4280.416149068324 300"></path><path d="M526.0372670807453 15 L-4025.881987577639 300"></path><path d="M534.5217391304348 15 L-3771.347826086956 300"></path><path d="M543.0062111801242 15 L-3516.813664596273 300"></path><path d="M551.4906832298136 15 L-3262.2795031055903 300"></path><path d="M559.9751552795032 15 L-3007.7453416149074 300"></path><path d="M568.4596273291926 15 L-2753.2111801242245 300"></path><path d="M576.944099378882 15 L-2498.6770186335416 300"></path><path d="M585.4285714285714 15 L-2244.1428571428587 300"></path><path d="M593.9130434782609 15 L-1989.6086956521722 300"></path><path d="M602.3975155279503 15 L-1735.0745341614893 300"></path><path d="M610.8819875776397 15 L-1480.5403726708064 300"></path><path d="M619.3664596273292 15 L-1226.0062111801235 300"></path><path d="M627.8509316770186 15 L-971.4720496894406 300"></path><path d="M636.335403726708 15 L-716.9378881987577 300"></path><path d="M644.8198757763976 15 L-462.4037267080748 300"></path><path d="M653.304347826087 15 L-207.86956521739194 300"></path><path d="M661.7888198757764 15 L46.664596273290954 300"></path><path d="M670.2732919254659 15 L301.19875776397384 300"></path><path d="M678.7577639751553 15 L555.7329192546567 300"></path><path d="M687.2422360248447 15 L810.2670807453433 300"></path><path d="M695.7267080745341 15 L1064.8012422360262 300"></path><path d="M704.2111801242236 15 L1319.335403726709 300"></path><path d="M712.695652173913 15 L1573.869565217392 300"></path><path d="M721.1801242236024 15 L1828.4037267080748 300"></path><path d="M729.664596273292 15 L2082.9378881987577 300"></path><path d="M738.1490683229814 15 L2337.4720496894406 300"></path><path d="M746.6335403726708 15 L2592.0062111801235 300"></path><path d="M755.1180124223603 15 L2846.5403726708064 300"></path><path d="M763.6024844720497 15 L3101.0745341614893 300"></path><path d="M772.0869565217391 15 L3355.608695652172 300"></path><path d="M780.5714285714286 15 L3610.1428571428587 300"></path><path d="M789.055900621118 15 L3864.6770186335416 300"></path><path d="M797.5403726708074 15 L4119.2111801242245 300"></path><path d="M806.0248447204968 15 L4373.745341614907 300"></path><path d="M814.5093167701864 15 L4628.27950310559 300"></path><path d="M822.9937888198758 15 L4882.813664596273 300"></path><path d="M831.4782608695652 15 L5137.347826086956 300"></path><path d="M839.9627329192547 15 L5391.881987577639 300"></path><path d="M848.4472049689441 15 L5646.416149068322 300"></path><path d="M856.9316770186335 15 L5900.950310559005 300"></path><path d="M865.416149068323 15 L6155.484472049691 300"></path><path d="M873.9006211180124 15 L6410.018633540374 300"></path><path d="M882.3850931677018 15 L6664.552795031057 300"></path><path d="M890.8695652173913 15 L6919.08695652174 300"></path><path d="M899.3540372670808 15 L7173.621118012423 300"></path><path d="M907.8385093167702 15 L7428.155279503106 300"></path><path d="M916.3229813664597 15 L7682.689440993789 300"></path><path d="M924.8074534161491 15 L7937.2236024844715 300"></path><path d="M933.2919254658385 15 L8191.757763975154 300"></path><path d="M941.776397515528 15 L8446.291925465837 300"></path><path d="M950.2608695652174 15 L8700.82608695652 300"></path><path d="M958.7453416149068 15 L8955.360248447207 300"></path><path d="M967.2298136645962 15 L9209.89440993789 300"></path><path d="M975.7142857142857 15 L9464.428571428572 300"></path><path d="M984.1987577639752 15 L9718.962732919255 300"></path><path d="M992.6832298136646 15 L9973.496894409938 300"></path><path d="M1001.1677018633541 15 L10228.031055900621 300"></path><path d="M1009.6521739130435 15 L10482.565217391304 300"></path><path d="M1018.1366459627329 15 L10737.099378881987 300"></path><path d="M1026.6211180124224 15 L10991.63354037267 300"></path><path d="M1035.1055900621118 15 L11246.167701863353 300"></path><path d="M1043.5900621118012 15 L11500.701863354036 300"></path><path d="M1052.0745341614906 15 L11755.236024844722 300"></path><path d="M1060.55900621118 15 L12009.770186335405 300"></path><path d="M1069.0434782608695 15 L12264.304347826088 300"></path><path d="M1077.527950310559 15 L12518.83850931677 300"></path><path d="M1086.0124223602484 15 L12773.372670807454 300"></path><path d="M1094.4968944099378 15 L13027.90683229814 300"></path><path d="M1102.9813664596272 15 L13282.44099378882 300"></path><path d="M1111.4658385093169 15 L13536.975155279506 300"></path><path d="M1119.9503105590063 15 L13791.509316770185 300"></path><path d="M1128.4347826086957 15 L14046.043478260872 300"></path><path d="M1136.9192546583852 15 L14300.577639751551 300"></path><path d="M1145.4037267080746 15 L14555.111801242238 300"></path><path d="M1153.888198757764 15 L14809.645962732917 300"></path><path d="M1162.3726708074535 15 L15064.180124223603 300"></path><path d="M1170.857142857143 15 L15318.714285714283 300"></path><path d="M1179.3416149068323 15 L15573.24844720497 300"></path><path d="M1187.8260869565217 15 L15827.782608695656 300"></path><path d="M1196.3105590062112 15 L16082.316770186335 300"></path><path d="M1204.7950310559006 15 L16336.850931677021 300"></path><path d="M1213.27950310559 15 L16591.3850931677 300"></path><path d="M1221.7639751552795 15 L16845.919254658387 300"></path><path d="M1230.248447204969 15 L17100.453416149066 300"></path><path d="M1238.7329192546583 15 L17354.987577639753 300"></path><path d="M1247.2173913043478 15 L17609.521739130432 300"></path><path d="M1255.7018633540372 15 L17864.05590062112 300"></path><path d="M1264.1863354037266 15 L18118.590062111798 300"></path><path d="M1272.670807453416 15 L18373.124223602485 300"></path><path d="M1281.1552795031057 15 L18627.65838509317 300"></path><path d="M1289.6397515527951 15 L18882.19254658385 300"></path><path d="M1298.1242236024846 15 L19136.726708074537 300"></path><path d="M1306.608695652174 15 L19391.260869565216 300"></path><path d="M1315.0931677018634 15 L19645.795031055903 300"></path><path d="M1323.5776397515529 15 L19900.329192546582 300"></path><path d="M1332.0621118012423 15 L20154.86335403727 300"></path><path d="M1340.5465838509317 15 L20409.397515527948 300"></path><path d="M1349.0310559006211 15 L20663.931677018634 300"></path><path d="M1357.5155279503106 15 L20918.465838509313 300"></path><path d="M1366 15 L21173 300"></path><g>
<path d="M0 15 L1366 15"></path>
<animateTransform attributeName="transform" type="translate" repeatCount="indefinite" calcMode="linear" keyTimes="0;1" values="0 0;0 1.4073531113768758" begin="0s" dur="2.083333333333333s"></animateTransform>

</g><g>
<path d="M0 16.407353111376874 L1366 16.407353111376874"></path>
<animateTransform attributeName="transform" type="translate" repeatCount="indefinite" calcMode="linear" keyTimes="0;1" values="0 0;0 2.814706222753751" begin="0s" dur="2.083333333333333s"></animateTransform>

</g><g>
<path d="M0 19.222059334130627 L1366 19.222059334130627"></path>
<animateTransform attributeName="transform" type="translate" repeatCount="indefinite" calcMode="linear" keyTimes="0;1" values="0 0;0 4.222059334130627" begin="0s" dur="2.083333333333333s"></animateTransform>

</g><g>
<path d="M0 23.444118668261254 L1366 23.444118668261254"></path>
<animateTransform attributeName="transform" type="translate" repeatCount="indefinite" calcMode="linear" keyTimes="0;1" values="0 0;0 5.629412445507503" begin="0s" dur="2.083333333333333s"></animateTransform>

</g><g>
<path d="M0 29.07353111376876 L1366 29.07353111376876"></path>
<animateTransform attributeName="transform" type="translate" repeatCount="indefinite" calcMode="linear" keyTimes="0;1" values="0 0;0 7.036765556884379" begin="0s" dur="2.083333333333333s"></animateTransform>

</g><g>
<path d="M0 36.11029667065314 L1366 36.11029667065314"></path>
<animateTransform attributeName="transform" type="translate" repeatCount="indefinite" calcMode="linear" keyTimes="0;1" values="0 0;0 8.444118668261256" begin="0s" dur="2.083333333333333s"></animateTransform>

</g><g>
<path d="M0 44.554415338914396 L1366 44.554415338914396"></path>
<animateTransform attributeName="transform" type="translate" repeatCount="indefinite" calcMode="linear" keyTimes="0;1" values="0 0;0 9.851471779638132" begin="0s" dur="2.083333333333333s"></animateTransform>

</g><g>
<path d="M0 54.40588711855253 L1366 54.40588711855253"></path>
<animateTransform attributeName="transform" type="translate" repeatCount="indefinite" calcMode="linear" keyTimes="0;1" values="0 0;0 11.258824891015008" begin="0s" dur="2.083333333333333s"></animateTransform>

</g><g>
<path d="M0 65.66471200956754 L1366 65.66471200956754"></path>
<animateTransform attributeName="transform" type="translate" repeatCount="indefinite" calcMode="linear" keyTimes="0;1" values="0 0;0 12.666178002391884" begin="0s" dur="2.083333333333333s"></animateTransform>

</g><g>
<path d="M0 78.33089001195943 L1366 78.33089001195943"></path>
<animateTransform attributeName="transform" type="translate" repeatCount="indefinite" calcMode="linear" keyTimes="0;1" values="0 0;0 14.07353111376876" begin="0s" dur="2.083333333333333s"></animateTransform>

</g><g>
<path d="M0 92.40442112572819 L1366 92.40442112572819"></path>
<animateTransform attributeName="transform" type="translate" repeatCount="indefinite" calcMode="linear" keyTimes="0;1" values="0 0;0 15.480884225145635" begin="0s" dur="2.083333333333333s"></animateTransform>

</g><g>
<path d="M0 107.88530535087384 L1366 107.88530535087384"></path>
<animateTransform attributeName="transform" type="translate" repeatCount="indefinite" calcMode="linear" keyTimes="0;1" values="0 0;0 16.88823733652251" begin="0s" dur="2.083333333333333s"></animateTransform>

</g><g>
<path d="M0 124.77354268739634 L1366 124.77354268739634"></path>
<animateTransform attributeName="transform" type="translate" repeatCount="indefinite" calcMode="linear" keyTimes="0;1" values="0 0;0 18.295590447899386" begin="0s" dur="2.083333333333333s"></animateTransform>

</g><g>
<path d="M0 143.06913313529571 L1366 143.06913313529571"></path>
<animateTransform attributeName="transform" type="translate" repeatCount="indefinite" calcMode="linear" keyTimes="0;1" values="0 0;0 19.70294355927626" begin="0s" dur="2.083333333333333s"></animateTransform>

</g><g>
<path d="M0 162.77207669457198 L1366 162.77207669457198"></path>
<animateTransform attributeName="transform" type="translate" repeatCount="indefinite" calcMode="linear" keyTimes="0;1" values="0 0;0 21.110296670653135" begin="0s" dur="2.083333333333333s"></animateTransform>

</g><g>
<path d="M0 183.8823733652251 L1366 183.8823733652251"></path>
<animateTransform attributeName="transform" type="translate" repeatCount="indefinite" calcMode="linear" keyTimes="0;1" values="0 0;0 22.51764978203001" begin="0s" dur="2.083333333333333s"></animateTransform>

</g><g>
<path d="M0 206.40002314725513 L1366 206.40002314725513"></path>
<animateTransform attributeName="transform" type="translate" repeatCount="indefinite" calcMode="linear" keyTimes="0;1" values="0 0;0 23.925002893406884" begin="0s" dur="2.083333333333333s"></animateTransform>

</g><g>
<path d="M0 230.325026040662 L1366 230.325026040662"></path>
<animateTransform attributeName="transform" type="translate" repeatCount="indefinite" calcMode="linear" keyTimes="0;1" values="0 0;0 25.332356004783758" begin="0s" dur="2.083333333333333s"></animateTransform>

</g><g>
<path d="M0 255.65738204544576 L1366 255.65738204544576"></path>
<animateTransform attributeName="transform" type="translate" repeatCount="indefinite" calcMode="linear" keyTimes="0;1" values="0 0;0 26.739709116160633" begin="0s" dur="2.083333333333333s"></animateTransform>

</g><g>
<path d="M0 282.3970911616064 L1366 282.3970911616064"></path>
<animateTransform attributeName="transform" type="translate" repeatCount="indefinite" calcMode="linear" keyTimes="0;1" values="0 0;0 28.147062227537507" begin="0s" dur="2.083333333333333s"></animateTransform>

</g><g>
<path d="M0 310.5441533891439 L1366 310.5441533891439"></path>
<animateTransform attributeName="transform" type="translate" repeatCount="indefinite" calcMode="linear" keyTimes="0;1" values="0 0;0 29.55441533891438" begin="0s" dur="2.083333333333333s"></animateTransform>

</g><rect x="0" y="0" width="1366" height="300" fill="url(#fg-lg-0.3727329387187901)"></rect></g>
</svg>